# This file uses centimeters as units for non-parametric coordinates.

mtllib DoorWall.mtl
g default
v -3.022876 -21.281066 48.760503
v 3.022876 -21.281066 48.760503
v -3.022876 -12.768640 48.760503
v 3.022876 -12.768640 48.760503
v -3.022876 -4.256214 48.760503
v 3.022876 -4.256214 48.760503
v -3.022876 4.256213 48.760503
v 3.022876 4.256213 48.760503
v -3.022876 12.768640 48.760503
v 3.022876 12.768640 48.760503
v -3.022876 21.281066 48.760503
v 3.022876 21.281066 48.760503
v -3.022876 21.281066 24.380252
v 3.022876 21.281066 24.380252
v -3.022876 21.281066 0.000000
v 3.022876 21.281066 0.000000
v -3.022876 21.281066 -24.380252
v 3.022876 21.281066 -24.380252
v -3.022876 21.281066 -48.760503
v 3.022876 21.281066 -48.760503
v -3.022876 12.768640 -48.760503
v 3.022876 12.768640 -48.760503
v -3.022876 4.256214 -48.760503
v 3.022876 4.256214 -48.760503
v -3.022876 -4.256213 -48.760503
v 3.022876 -4.256213 -48.760503
v -3.022876 -12.768640 -48.760503
v 3.022876 -12.768640 -48.760503
v -3.022876 -21.281066 -48.760503
v 3.022876 -21.281066 -48.760503
v -3.022876 -21.281066 -24.380252
v 3.022876 -21.281066 -24.380252
v -3.022876 -21.281066 0.000000
v 3.022876 -21.281066 0.000000
v -3.022876 -21.281066 24.380252
v 3.022876 -21.281066 24.380252
v 3.022876 -12.768640 -24.380252
v 3.022876 -12.768640 0.000000
v 3.022876 -12.768640 24.380252
v 3.022876 -4.256214 -24.380252
v 3.022876 -4.256214 0.000000
v 3.022876 -4.256214 24.380252
v 3.022876 4.256213 -24.380252
v 3.022876 4.256213 0.000000
v 3.022876 4.256213 24.380252
v 3.022876 12.768640 -24.380252
v 3.022876 12.768640 0.000000
v 3.022876 12.768640 24.380252
v -3.022876 -12.768640 -24.380252
v -3.022876 -12.768640 0.000000
v -3.022876 -12.768640 24.380252
v -3.022876 -4.256214 -24.380252
v -3.022876 -4.256214 0.000000
v -3.022876 -4.256214 24.380252
v -3.022876 4.256213 -24.380252
v -3.022876 4.256213 0.000000
v -3.022876 4.256213 24.380252
v -3.022876 12.768640 -24.380252
v -3.022876 12.768640 0.000000
v -3.022876 12.768640 24.380252
vt 0.375000 0.000000
vt 0.625000 0.000000
vt 0.375000 0.050000
vt 0.625000 0.050000
vt 0.375000 0.100000
vt 0.625000 0.100000
vt 0.375000 0.150000
vt 0.625000 0.150000
vt 0.375000 0.200000
vt 0.625000 0.200000
vt 0.375000 0.250000
vt 0.625000 0.250000
vt 0.375000 0.312500
vt 0.625000 0.312500
vt 0.375000 0.375000
vt 0.625000 0.375000
vt 0.375000 0.437500
vt 0.625000 0.437500
vt 0.375000 0.500000
vt 0.625000 0.500000
vt 0.375000 0.550000
vt 0.625000 0.550000
vt 0.375000 0.600000
vt 0.625000 0.600000
vt 0.375000 0.650000
vt 0.625000 0.650000
vt 0.375000 0.700000
vt 0.625000 0.700000
vt 0.375000 0.750000
vt 0.625000 0.750000
vt 0.375000 0.812500
vt 0.625000 0.812500
vt 0.375000 0.875000
vt 0.625000 0.875000
vt 0.375000 0.937500
vt 0.625000 0.937500
vt 0.375000 1.000000
vt 0.625000 1.000000
vt 0.875000 0.000000
vt 0.812500 0.000000
vt 0.750000 0.000000
vt 0.687500 0.000000
vt 0.875000 0.050000
vt 0.812500 0.050000
vt 0.750000 0.050000
vt 0.687500 0.050000
vt 0.875000 0.100000
vt 0.812500 0.100000
vt 0.750000 0.100000
vt 0.687500 0.100000
vt 0.875000 0.150000
vt 0.812500 0.150000
vt 0.750000 0.150000
vt 0.687500 0.150000
vt 0.875000 0.200000
vt 0.812500 0.200000
vt 0.750000 0.200000
vt 0.687500 0.200000
vt 0.875000 0.250000
vt 0.812500 0.250000
vt 0.750000 0.250000
vt 0.687500 0.250000
vt 0.125000 0.000000
vt 0.187500 0.000000
vt 0.250000 0.000000
vt 0.312500 0.000000
vt 0.125000 0.050000
vt 0.187500 0.050000
vt 0.250000 0.050000
vt 0.312500 0.050000
vt 0.125000 0.100000
vt 0.187500 0.100000
vt 0.250000 0.100000
vt 0.312500 0.100000
vt 0.125000 0.150000
vt 0.187500 0.150000
vt 0.250000 0.150000
vt 0.312500 0.150000
vt 0.125000 0.200000
vt 0.187500 0.200000
vt 0.250000 0.200000
vt 0.312500 0.200000
vt 0.125000 0.250000
vt 0.187500 0.250000
vt 0.250000 0.250000
vt 0.312500 0.250000
vn 0.000000 0.000000 1.000000
vn 0.000000 0.000000 1.000000
vn 0.000000 0.000000 1.000000
vn 0.000000 0.000000 1.000000
vn 0.000000 0.000000 1.000000
vn 0.000000 0.000000 1.000000
vn 0.000000 0.000000 1.000000
vn 0.000000 0.000000 1.000000
vn 0.000000 0.000000 1.000000
vn 0.000000 0.000000 1.000000
vn 0.000000 0.000000 1.000000
vn 0.000000 0.000000 1.000000
vn 0.000000 1.000000 0.000000
vn 0.000000 1.000000 0.000000
vn 0.000000 1.000000 0.000000
vn 0.000000 1.000000 0.000000
vn 0.000000 1.000000 0.000000
vn 0.000000 1.000000 0.000000
vn 0.000000 1.000000 0.000000
vn 0.000000 1.000000 0.000000
vn 0.000000 1.000000 0.000000
vn 0.000000 1.000000 0.000000
vn 0.000000 0.000000 -1.000000
vn 0.000000 0.000000 -1.000000
vn 0.000000 0.000000 -1.000000
vn 0.000000 0.000000 -1.000000
vn 0.000000 0.000000 -1.000000
vn 0.000000 0.000000 -1.000000
vn 0.000000 0.000000 -1.000000
vn 0.000000 0.000000 -1.000000
vn 0.000000 0.000000 -1.000000
vn 0.000000 0.000000 -1.000000
vn 0.000000 0.000000 -1.000000
vn 0.000000 0.000000 -1.000000
vn 0.000000 -1.000000 0.000000
vn 0.000000 -1.000000 0.000000
vn 0.000000 -1.000000 0.000000
vn 0.000000 -1.000000 0.000000
vn 0.000000 -1.000000 0.000000
vn 0.000000 -1.000000 0.000000
vn 0.000000 -1.000000 0.000000
vn 0.000000 -1.000000 0.000000
vn 0.000000 -1.000000 0.000000
vn 0.000000 -1.000000 0.000000
vn 1.000000 0.000000 0.000000
vn 1.000000 0.000000 0.000000
vn 1.000000 0.000000 0.000000
vn 1.000000 0.000000 0.000000
vn 1.000000 0.000000 0.000000
vn 1.000000 0.000000 0.000000
vn 1.000000 0.000000 0.000000
vn 1.000000 0.000000 0.000000
vn 1.000000 0.000000 0.000000
vn 1.000000 0.000000 0.000000
vn 1.000000 0.000000 0.000000
vn 1.000000 0.000000 0.000000
vn 1.000000 0.000000 0.000000
vn 1.000000 0.000000 0.000000
vn 1.000000 0.000000 0.000000
vn 1.000000 0.000000 0.000000
vn 1.000000 0.000000 0.000000
vn 1.000000 0.000000 0.000000
vn 1.000000 0.000000 0.000000
vn 1.000000 0.000000 0.000000
vn 1.000000 0.000000 0.000000
vn 1.000000 0.000000 0.000000
vn 1.000000 0.000000 0.000000
vn 1.000000 0.000000 0.000000
vn 1.000000 0.000000 0.000000
vn 1.000000 0.000000 0.000000
vn 1.000000 0.000000 0.000000
vn 1.000000 0.000000 0.000000
vn 1.000000 0.000000 0.000000
vn 1.000000 0.000000 0.000000
vn -1.000000 0.000000 0.000000
vn -1.000000 0.000000 0.000000
vn -1.000000 0.000000 0.000000
vn -1.000000 0.000000 0.000000
vn -1.000000 0.000000 0.000000
vn -1.000000 0.000000 0.000000
vn -1.000000 0.000000 0.000000
vn -1.000000 0.000000 0.000000
vn -1.000000 0.000000 0.000000
vn -1.000000 0.000000 0.000000
vn -1.000000 0.000000 0.000000
vn -1.000000 0.000000 0.000000
vn -1.000000 0.000000 0.000000
vn -1.000000 0.000000 0.000000
vn -1.000000 0.000000 0.000000
vn -1.000000 0.000000 0.000000
vn -1.000000 0.000000 0.000000
vn -1.000000 0.000000 0.000000
vn -1.000000 0.000000 0.000000
vn -1.000000 0.000000 0.000000
vn -1.000000 0.000000 0.000000
vn -1.000000 0.000000 0.000000
vn -1.000000 0.000000 0.000000
vn -1.000000 0.000000 0.000000
vn -1.000000 0.000000 0.000000
vn -1.000000 0.000000 0.000000
vn -1.000000 0.000000 0.000000
vn -1.000000 0.000000 0.000000
vn -1.000000 0.000000 0.000000
vn -1.000000 0.000000 0.000000
s 1
g pCube1
usemtl initialShadingGroup
f 1/1/1 2/2/2 4/4/3 3/3/4
f 3/3/4 4/4/3 6/6/5 5/5/6
f 5/5/6 6/6/5 8/8/7 7/7/8
f 7/7/8 8/8/7 10/10/9 9/9/10
f 9/9/10 10/10/9 12/12/11 11/11/12
s 2
f 11/11/13 12/12/14 14/14/15 13/13/16
f 13/13/16 14/14/15 16/16/17 15/15/18
f 15/15/18 16/16/17 18/18/19 17/17/20
f 17/17/20 18/18/19 20/20/21 19/19/22
s 3
f 19/19/23 20/20/24 22/22/25 21/21/26
f 21/21/26 22/22/25 24/24/27 23/23/28
f 23/23/28 24/24/27 26/26/29 25/25/30
f 25/25/30 26/26/29 28/28/31 27/27/32
f 27/27/32 28/28/31 30/30/33 29/29/34
s 4
f 29/29/35 30/30/36 32/32/37 31/31/38
f 31/31/38 32/32/37 34/34/39 33/33/40
s off
f 35/35/41 36/36/42 2/38/43 1/37/44
s 5
f 32/40/45 30/39/46 28/43/47 37/44/48
f 34/41/49 32/40/45 37/44/48 38/45/50
f 2/2/51 36/42/52 39/46/53 4/4/54
f 37/44/48 28/43/47 26/47/55 40/48/56
f 38/45/50 37/44/48 40/48/56 41/49/57
f 4/4/54 39/46/53 42/50/58 6/6/59
f 40/48/56 26/47/55 24/51/60 43/52/61
f 41/49/57 40/48/56 43/52/61 44/53/62
f 6/6/59 42/50/58 45/54/63 8/8/64
f 43/52/61 24/51/60 22/55/65 46/56/66
f 44/53/62 43/52/61 46/56/66 47/57/67
f 45/54/63 44/53/62 47/57/67 48/58/68
f 8/8/64 45/54/63 48/58/68 10/10/69
f 46/56/66 22/55/65 20/59/70 18/60/71
f 47/57/67 46/56/66 18/60/71 16/61/72
f 48/58/68 47/57/67 16/61/72 14/62/73
f 10/10/69 48/58/68 14/62/73 12/12/74
s 7
f 29/63/75 31/64/76 49/68/77 27/67/78
f 31/64/76 33/65/79 50/69/80 49/68/77
f 35/66/81 1/1/82 3/3/83 51/70/84
f 27/67/78 49/68/77 52/72/85 25/71/86
f 49/68/77 50/69/80 53/73/87 52/72/85
f 51/70/84 3/3/83 5/5/88 54/74/89
f 25/71/86 52/72/85 55/76/90 23/75/91
f 52/72/85 53/73/87 56/77/92 55/76/90
f 54/74/89 5/5/88 7/7/93 57/78/94
f 23/75/91 55/76/90 58/80/95 21/79/96
f 55/76/90 56/77/92 59/81/97 58/80/95
f 56/77/92 57/78/94 60/82/98 59/81/97
f 57/78/94 7/7/93 9/9/99 60/82/98
f 21/79/96 58/80/95 17/84/100 19/83/101
f 58/80/95 59/81/97 15/85/102 17/84/100
f 59/81/97 60/82/98 13/86/103 15/85/102
f 60/82/98 9/9/99 11/11/104 13/86/103
