# This file uses centimeters as units for non-parametric coordinates.

mtllib WindowWall.mtl
g default
v -0.569366 -8.605869 18.220415
v 0.569366 -8.605869 18.220415
v -0.569366 -5.163521 18.220415
v 0.569366 -5.163521 18.220415
v -0.569366 -1.721174 18.220415
v 0.569366 -1.721174 18.220415
v -0.569366 1.721173 18.220415
v 0.569366 1.721173 18.220415
v -0.569366 5.163521 18.220415
v 0.569366 5.163521 18.220415
v -0.569366 8.605869 18.220415
v 0.569366 8.605869 18.220415
v -0.569366 8.605869 6.073471
v 0.569366 8.605869 6.073471
v -0.569366 8.605869 -6.073472
v 0.569366 8.605869 -6.073472
v -0.569366 8.605869 -18.220415
v 0.569366 8.605869 -18.220415
v -0.569366 5.163521 -18.220415
v 0.569366 5.163521 -18.220415
v -0.569366 1.721174 -18.220415
v 0.569366 1.721174 -18.220415
v -0.569366 -1.721173 -18.220415
v 0.569366 -1.721173 -18.220415
v -0.569366 -5.163521 -18.220415
v 0.569366 -5.163521 -18.220415
v -0.569366 -8.605869 -18.220415
v 0.569366 -8.605869 -18.220415
v -0.569366 -8.605869 -6.073471
v 0.569366 -8.605869 -6.073471
v -0.569366 -8.605869 6.073472
v 0.569366 -8.605869 6.073472
v 0.569366 -5.163521 -6.073471
v 0.569366 -5.163521 6.073472
v 0.569366 -1.721174 -6.073471
v 0.569366 -1.721174 6.073472
v 0.569366 1.721173 -6.073471
v 0.569366 1.721173 6.073472
v 0.569366 5.163521 -6.073471
v 0.569366 5.163521 6.073472
v -0.569366 -5.163521 -6.073471
v -0.569366 -5.163521 6.073472
v -0.569366 -1.721174 -6.073471
v -0.569366 -1.721174 6.073472
v -0.569366 1.721173 -6.073471
v -0.569366 1.721173 6.073472
v -0.569366 5.163521 -6.073471
v -0.569366 5.163521 6.073472
v 0.379577 -5.163521 6.073472
v 0.379577 -1.721174 6.073472
v 0.379577 1.721173 6.073472
v 0.379577 5.163521 6.073472
v 0.189789 -5.163522 6.073472
v 0.189789 -1.721174 6.073472
v 0.189789 1.721173 6.073472
v 0.189789 5.163522 6.073472
v 0.000000 -5.163522 6.073472
v 0.000000 -1.721174 6.073472
v 0.000000 1.721173 6.073472
v 0.000000 5.163522 6.073472
v -0.189789 -5.163522 6.073472
v -0.189789 -1.721174 6.073472
v -0.189789 1.721173 6.073472
v -0.189789 5.163522 6.073472
v -0.379577 -5.163522 6.073472
v -0.379577 -1.721174 6.073472
v -0.379577 1.721173 6.073472
v -0.379577 5.163522 6.073472
v 0.379577 -5.163521 -6.073471
v 0.379577 -5.163521 6.073472
v 0.189789 -5.163522 -6.073471
v 0.189789 -5.163522 6.073472
v 0.000000 -5.163522 -6.073471
v 0.000000 -5.163522 6.073472
v -0.189789 -5.163522 -6.073471
v -0.189789 -5.163522 6.073472
v -0.379577 -5.163522 -6.073471
v -0.379577 -5.163522 6.073472
v 0.379577 5.163521 6.073472
v 0.379577 5.163521 -6.073471
v 0.189789 5.163522 6.073472
v 0.189789 5.163522 -6.073471
v -0.000000 5.163522 6.073472
v -0.000000 5.163522 -6.073471
v -0.189789 5.163522 6.073472
v -0.189789 5.163522 -6.073471
v -0.379577 5.163522 6.073472
v -0.379577 5.163522 -6.073471
v 0.379577 5.163521 -6.073471
v 0.379577 1.721173 -6.073471
v 0.379577 -1.721174 -6.073471
v 0.379577 -5.163521 -6.073471
v 0.189789 5.163522 -6.073471
v 0.189789 1.721173 -6.073471
v 0.189789 -1.721174 -6.073471
v 0.189789 -5.163522 -6.073471
v -0.000000 5.163522 -6.073471
v -0.000000 1.721173 -6.073471
v -0.000000 -1.721174 -6.073471
v -0.000000 -5.163522 -6.073471
v -0.189789 5.163522 -6.073471
v -0.189789 1.721173 -6.073471
v -0.189789 -1.721174 -6.073471
v -0.189789 -5.163522 -6.073471
v -0.379577 5.163522 -6.073471
v -0.379577 1.721173 -6.073471
v -0.379577 -1.721174 -6.073471
v -0.379577 -5.163522 -6.073471
vt 0.375000 0.000000
vt 0.625000 0.000000
vt 0.375000 0.050000
vt 0.625000 0.050000
vt 0.375000 0.100000
vt 0.625000 0.100000
vt 0.375000 0.150000
vt 0.625000 0.150000
vt 0.375000 0.200000
vt 0.625000 0.200000
vt 0.375000 0.250000
vt 0.625000 0.250000
vt 0.375000 0.333333
vt 0.625000 0.333333
vt 0.375000 0.416667
vt 0.625000 0.416667
vt 0.375000 0.500000
vt 0.625000 0.500000
vt 0.375000 0.550000
vt 0.625000 0.550000
vt 0.375000 0.600000
vt 0.625000 0.600000
vt 0.375000 0.650000
vt 0.625000 0.650000
vt 0.375000 0.700000
vt 0.625000 0.700000
vt 0.375000 0.750000
vt 0.625000 0.750000
vt 0.375000 0.833333
vt 0.625000 0.833333
vt 0.375000 0.916667
vt 0.625000 0.916667
vt 0.375000 1.000000
vt 0.625000 1.000000
vt 0.875000 0.000000
vt 0.791667 0.000000
vt 0.708333 0.000000
vt 0.875000 0.050000
vt 0.791667 0.050000
vt 0.708333 0.050000
vt 0.875000 0.100000
vt 0.791667 0.100000
vt 0.708333 0.100000
vt 0.875000 0.150000
vt 0.791667 0.150000
vt 0.708333 0.150000
vt 0.875000 0.200000
vt 0.791667 0.200000
vt 0.708333 0.200000
vt 0.875000 0.250000
vt 0.791667 0.250000
vt 0.708333 0.250000
vt 0.125000 0.000000
vt 0.208333 0.000000
vt 0.291667 0.000000
vt 0.125000 0.050000
vt 0.208333 0.050000
vt 0.291667 0.050000
vt 0.125000 0.100000
vt 0.208333 0.100000
vt 0.291667 0.100000
vt 0.125000 0.150000
vt 0.208333 0.150000
vt 0.291667 0.150000
vt 0.125000 0.200000
vt 0.208333 0.200000
vt 0.291667 0.200000
vt 0.125000 0.250000
vt 0.208333 0.250000
vt 0.291667 0.250000
vt 0.638889 0.050000
vt 0.638889 0.100000
vt 0.638889 0.150000
vt 0.638889 0.200000
vt 0.569444 0.050000
vt 0.569444 0.100000
vt 0.569444 0.150000
vt 0.569444 0.200000
vt 0.500000 0.050000
vt 0.500000 0.100000
vt 0.500000 0.150000
vt 0.500000 0.200000
vt 0.430556 0.050000
vt 0.430556 0.100000
vt 0.430556 0.150000
vt 0.430556 0.200000
vt 0.361111 0.050000
vt 0.361111 0.100000
vt 0.361111 0.150000
vt 0.361111 0.200000
vt 0.694444 0.050000
vt 0.638889 0.050000
vt 0.597222 0.050000
vt 0.569444 0.050000
vt 0.500000 0.050000
vt 0.500000 0.050000
vt 0.402778 0.050000
vt 0.430556 0.050000
vt 0.305556 0.050000
vt 0.361111 0.050000
vt 0.638889 0.200000
vt 0.694444 0.200000
vt 0.569444 0.200000
vt 0.597222 0.200000
vt 0.500000 0.200000
vt 0.500000 0.200000
vt 0.430556 0.200000
vt 0.402778 0.200000
vt 0.361111 0.200000
vt 0.305556 0.200000
vt 0.694444 0.200000
vt 0.694444 0.150000
vt 0.694444 0.100000
vt 0.694444 0.050000
vt 0.597222 0.200000
vt 0.597222 0.150000
vt 0.597222 0.100000
vt 0.597222 0.050000
vt 0.500000 0.200000
vt 0.500000 0.150000
vt 0.500000 0.100000
vt 0.500000 0.050000
vt 0.402778 0.200000
vt 0.402778 0.150000
vt 0.402778 0.100000
vt 0.402778 0.050000
vt 0.305556 0.200000
vt 0.305556 0.150000
vt 0.305556 0.100000
vt 0.305556 0.050000
vn 0.000000 0.000000 1.000000
vn 0.000000 0.000000 1.000000
vn 0.000000 0.000000 1.000000
vn 0.000000 0.000000 1.000000
vn 0.000000 0.000000 1.000000
vn 0.000000 0.000000 1.000000
vn 0.000000 0.000000 1.000000
vn 0.000000 0.000000 1.000000
vn 0.000000 0.000000 1.000000
vn 0.000000 0.000000 1.000000
vn 0.000000 0.000000 1.000000
vn 0.000000 0.000000 1.000000
vn 0.000000 1.000000 0.000000
vn 0.000000 1.000000 0.000000
vn 0.000000 1.000000 0.000000
vn 0.000000 1.000000 0.000000
vn 0.000000 1.000000 0.000000
vn 0.000000 1.000000 0.000000
vn 0.000000 1.000000 0.000000
vn 0.000000 1.000000 0.000000
vn 0.000000 0.000000 -1.000000
vn 0.000000 0.000000 -1.000000
vn 0.000000 0.000000 -1.000000
vn 0.000000 0.000000 -1.000000
vn 0.000000 0.000000 -1.000000
vn 0.000000 0.000000 -1.000000
vn 0.000000 0.000000 -1.000000
vn 0.000000 0.000000 -1.000000
vn 0.000000 0.000000 -1.000000
vn 0.000000 0.000000 -1.000000
vn 0.000000 0.000000 -1.000000
vn 0.000000 0.000000 -1.000000
vn 0.000000 -1.000000 0.000000
vn 0.000000 -1.000000 0.000000
vn 0.000000 -1.000000 0.000000
vn 0.000000 -1.000000 0.000000
vn 0.000000 -1.000000 0.000000
vn 0.000000 -1.000000 0.000000
vn 0.000000 -1.000000 0.000000
vn 0.000000 -1.000000 0.000000
vn 1.000000 0.000000 0.000000
vn 1.000000 0.000000 0.000000
vn 1.000000 0.000000 0.000000
vn 1.000000 0.000000 0.000000
vn 1.000000 0.000000 0.000000
vn 1.000000 0.000000 0.000000
vn 1.000000 0.000000 0.000000
vn 1.000000 0.000000 0.000000
vn 1.000000 0.000000 0.000000
vn 1.000000 0.000000 0.000000
vn 1.000000 0.000000 0.000000
vn 1.000000 0.000000 0.000000
vn 1.000000 0.000000 0.000000
vn 1.000000 0.000000 0.000000
vn 1.000000 0.000000 0.000000
vn 1.000000 0.000000 0.000000
vn 1.000000 0.000000 0.000000
vn 1.000000 0.000000 0.000000
vn 1.000000 0.000000 0.000000
vn 1.000000 0.000000 0.000000
vn 1.000000 0.000000 0.000000
vn 1.000000 0.000000 0.000000
vn 1.000000 0.000000 0.000000
vn 1.000000 0.000000 0.000000
vn -1.000000 0.000000 0.000000
vn -1.000000 0.000000 0.000000
vn -1.000000 0.000000 0.000000
vn -1.000000 0.000000 0.000000
vn -1.000000 0.000000 0.000000
vn -1.000000 0.000000 0.000000
vn -1.000000 0.000000 0.000000
vn -1.000000 0.000000 0.000000
vn -1.000000 0.000000 0.000000
vn -1.000000 0.000000 0.000000
vn -1.000000 0.000000 0.000000
vn -1.000000 0.000000 0.000000
vn -1.000000 0.000000 0.000000
vn -1.000000 0.000000 0.000000
vn -1.000000 0.000000 0.000000
vn -1.000000 0.000000 0.000000
vn -1.000000 -0.000000 0.000000
vn -1.000000 0.000000 0.000000
vn -1.000000 -0.000000 0.000000
vn -1.000000 -0.000000 0.000000
vn -1.000000 -0.000000 0.000000
vn -1.000000 0.000000 0.000000
vn -1.000000 -0.000000 0.000000
vn -1.000000 -0.000000 0.000000
vn 0.000000 0.000000 -1.000000
vn 0.000002 0.000000 -1.000000
vn 0.000001 0.000000 -1.000000
vn 0.000001 0.000000 -1.000000
vn 0.000004 0.000000 -1.000000
vn 0.000002 0.000000 -1.000000
vn 0.000004 0.000000 -1.000000
vn 0.000002 0.000000 -1.000000
vn 0.000000 0.000000 -1.000000
vn 0.000000 0.000000 -1.000000
vn 0.000000 0.000000 -1.000000
vn 0.000001 0.000000 -1.000000
vn 0.000000 0.000000 -1.000000
vn -0.000000 0.000000 -1.000000
vn -0.000001 0.000000 -1.000000
vn -0.000002 0.000000 -1.000000
vn 0.000000 0.000000 -1.000000
vn -0.000000 0.000000 -1.000000
vn -0.000001 0.000000 -1.000000
vn -0.000002 0.000000 -1.000000
vn -0.000002 0.000000 -1.000000
vn -0.000001 0.000000 -1.000000
vn -0.000000 0.000000 -1.000000
vn 0.000001 0.000000 -1.000000
vn -0.000004 0.000000 -1.000000
vn -0.000003 0.000000 -1.000000
vn 0.000000 0.000000 -1.000000
vn 0.000002 0.000000 -1.000000
vn 0.000000 1.000000 0.000000
vn 0.000000 1.000000 0.000000
vn -0.000001 1.000000 0.000000
vn -0.000001 1.000000 0.000000
vn -0.000001 1.000000 0.000000
vn -0.000001 1.000000 0.000000
vn 0.000000 1.000000 0.000000
vn 0.000000 1.000000 0.000000
vn 0.000000 1.000000 0.000000
vn 0.000000 1.000000 0.000000
vn 0.000001 1.000000 0.000000
vn 0.000001 1.000000 0.000000
vn 0.000003 1.000000 0.000000
vn 0.000003 1.000000 0.000000
vn 0.000000 -1.000000 0.000000
vn 0.000000 -1.000000 0.000000
vn -0.000001 -1.000000 0.000000
vn -0.000001 -1.000000 0.000000
vn -0.000001 -1.000000 0.000000
vn -0.000001 -1.000000 0.000000
vn 0.000000 -1.000000 0.000000
vn 0.000000 -1.000000 0.000000
vn 0.000000 -1.000000 0.000000
vn 0.000000 -1.000000 0.000000
vn 0.000001 -1.000000 0.000000
vn 0.000001 -1.000000 0.000000
vn 0.000003 -1.000000 0.000000
vn 0.000003 -1.000000 0.000000
vn 0.000000 0.000000 1.000000
vn 0.000000 0.000000 1.000000
vn 0.000000 0.000000 1.000000
vn 0.000001 0.000000 1.000000
vn 0.000000 0.000000 1.000000
vn 0.000000 0.000000 1.000000
vn 0.000000 0.000000 1.000000
vn 0.000000 0.000000 1.000000
vn 0.000000 0.000000 1.000000
vn 0.000000 0.000000 1.000000
vn 0.000000 0.000000 1.000000
vn 0.000001 0.000000 1.000000
vn -0.000001 0.000000 1.000000
vn -0.000001 0.000000 1.000000
vn 0.000000 0.000000 1.000000
vn 0.000000 0.000000 1.000000
vn -0.000001 0.000000 1.000000
vn -0.000001 0.000000 1.000000
vn 0.000000 0.000000 1.000000
vn 0.000000 0.000000 1.000000
vn 0.000001 0.000000 1.000000
vn 0.000001 0.000000 1.000000
vn -0.000000 0.000000 1.000000
vn -0.000001 0.000000 1.000000
vn 0.000002 0.000000 1.000000
vn 0.000001 0.000000 1.000000
vn -0.000001 0.000000 1.000000
vn -0.000001 0.000000 1.000000
s 1
g pCube1
usemtl initialShadingGroup
f 1/1/1 2/2/2 4/4/3 3/3/4
f 3/3/4 4/4/3 6/6/5 5/5/6
f 5/5/6 6/6/5 8/8/7 7/7/8
f 7/7/8 8/8/7 10/10/9 9/9/10
f 9/9/10 10/10/9 12/12/11 11/11/12
s 2
f 11/11/13 12/12/14 14/14/15 13/13/16
f 13/13/16 14/14/15 16/16/17 15/15/18
f 15/15/18 16/16/17 18/18/19 17/17/20
s 3
f 17/17/21 18/18/22 20/20/23 19/19/24
f 19/19/24 20/20/23 22/22/25 21/21/26
f 21/21/26 22/22/25 24/24/27 23/23/28
f 23/23/28 24/24/27 26/26/29 25/25/30
f 25/25/30 26/26/29 28/28/31 27/27/32
s 4
f 27/27/33 28/28/34 30/30/35 29/29/36
f 29/29/36 30/30/35 32/32/37 31/31/38
f 31/31/38 32/32/37 2/34/39 1/33/40
s 5
f 30/36/41 28/35/42 26/38/43 33/39/44
f 32/37/45 30/36/41 33/39/44 34/40/46
f 2/2/47 32/37/45 34/40/46 4/4/48
f 33/39/44 26/38/43 24/41/49 35/42/50
f 4/4/48 34/40/46 36/43/51 6/6/52
f 35/42/50 24/41/49 22/44/53 37/45/54
f 6/6/52 36/43/51 38/46/55 8/8/56
f 37/45/54 22/44/53 20/47/57 39/48/58
f 8/8/56 38/46/55 40/49/59 10/10/60
f 39/48/58 20/47/57 18/50/61 16/51/62
f 40/49/59 39/48/58 16/51/62 14/52/63
f 10/10/60 40/49/59 14/52/63 12/12/64
s 6
f 27/53/65 29/54/66 41/57/67 25/56/68
f 29/54/66 31/55/69 42/58/70 41/57/67
f 31/55/69 1/1/71 3/3/72 42/58/70
f 25/56/68 41/57/67 43/60/73 23/59/74
f 42/58/70 3/3/72 5/5/75 44/61/76
f 23/59/74 43/60/73 45/63/77 21/62/78
f 44/61/76 5/5/75 7/7/79 46/64/80
f 21/62/78 45/63/77 47/66/81 19/65/82
f 46/64/80 7/7/79 9/9/83 48/67/84
f 19/65/82 47/66/81 15/69/85 17/68/86
f 47/66/81 48/67/84 13/70/87 15/69/85
f 48/67/84 9/9/83 11/11/88 13/70/87
s 7
f 40/49/89 38/46/90 51/73/91 52/74/92
f 38/46/90 36/43/93 50/72/94 51/73/91
f 36/43/93 34/40/95 49/71/96 50/72/94
f 50/72/94 49/71/96 53/75/97 54/76/98
f 51/73/91 50/72/94 54/76/98 55/77/99
f 52/74/92 51/73/91 55/77/99 56/78/100
f 54/76/98 53/75/97 57/79/101 58/80/102
f 55/77/99 54/76/98 58/80/102 59/81/103
f 56/78/100 55/77/99 59/81/103 60/82/104
f 58/80/102 57/79/101 61/83/105 62/84/106
f 59/81/103 58/80/102 62/84/106 63/85/107
f 60/82/104 59/81/103 63/85/107 64/86/108
f 62/84/106 61/83/105 65/87/109 66/88/110
f 63/85/107 62/84/106 66/88/110 67/89/111
f 64/86/108 63/85/107 67/89/111 68/90/112
f 66/88/110 65/87/109 42/58/113 44/61/114
f 67/89/111 66/88/110 44/61/114 46/64/115
f 68/90/112 67/89/111 46/64/115 48/67/116
s 8
f 34/40/117 33/39/118 69/91/119 70/92/120
f 70/92/120 69/91/119 71/93/121 72/94/122
f 72/94/122 71/93/121 73/95/123 74/96/124
f 74/96/124 73/95/123 75/97/125 76/98/126
f 76/98/126 75/97/125 77/99/127 78/100/128
f 78/100/128 77/99/127 41/57/129 42/58/130
s 9
f 39/48/131 40/49/132 79/101/133 80/102/134
f 80/102/134 79/101/133 81/103/135 82/104/136
f 82/104/136 81/103/135 83/105/137 84/106/138
f 84/106/138 83/105/137 85/107/139 86/108/140
f 86/108/140 85/107/139 87/109/141 88/110/142
f 88/110/142 87/109/141 48/67/143 47/66/144
s 10
f 33/39/145 35/42/146 91/113/147 92/114/148
f 35/42/146 37/45/149 90/112/150 91/113/147
f 37/45/149 39/48/151 89/111/152 90/112/150
f 90/112/150 89/111/152 93/115/153 94/116/154
f 91/113/147 90/112/150 94/116/154 95/117/155
f 92/114/148 91/113/147 95/117/155 96/118/156
f 94/116/154 93/115/153 97/119/157 98/120/158
f 95/117/155 94/116/154 98/120/158 99/121/159
f 96/118/156 95/117/155 99/121/159 100/122/160
f 98/120/158 97/119/157 101/123/161 102/124/162
f 99/121/159 98/120/158 102/124/162 103/125/163
f 100/122/160 99/121/159 103/125/163 104/126/164
f 102/124/162 101/123/161 105/127/165 106/128/166
f 103/125/163 102/124/162 106/128/166 107/129/167
f 104/126/164 103/125/163 107/129/167 108/130/168
f 106/128/166 105/127/165 47/66/169 45/63/170
f 107/129/167 106/128/166 45/63/170 43/60/171
f 108/130/168 107/129/167 43/60/171 41/57/172
